<svg xmlns="http://www.w3.org/2000/svg"
     width="1200"
     height="560"
     viewBox="0 0 1200 560">

  <!-- Background -->
  <rect width="1200" height="560" rx="16" fill="#0d1117"/>

  <rect x="1" y="1"
        width="1198" height="558"
        rx="15"
        fill="none"
        stroke="#30363d"
        stroke-width="2"/>

  <!-- ================= HEADER ================= -->

  <rect x="1" y="1"
        width="1198" height="60"
        rx="15"
        fill="#11161d"/>

  <line x1="1" y1="60"
        x2="1199" y2="60"
        stroke="#30363d"/>

  <text x="28" y="37"
        fill="#8b949e"
        font-family="monospace"
        font-size="14">
    MARKET
  </text>

  <text x="91" y="37"
        fill="#f0f6fc"
        font-family="monospace"
        font-size="14"
        font-weight="bold">
    GITHUB
  </text>

  <text x="190" y="37"
        fill="#f0f6fc"
        font-family="monospace"
        font-size="14">
    PYTHON
  </text>

  <text x="250" y="37"
        fill="#22c55e"
        font-family="monospace"
        font-size="14">
    ▲ ACTIVE
  </text>

  <text x="362" y="37"
        fill="#f0f6fc"
        font-family="monospace"
        font-size="14">
    TYPESCRIPT
  </text>

  <text x="460" y="37"
        fill="#ef4444"
        font-family="monospace"
        font-size="14">
    ▼ WATCH
  </text>

  <text x="558" y="37"
        fill="#f0f6fc"
        font-family="monospace"
        font-size="14">
    JUPYTER
  </text>

  <text x="625" y="37"
        fill="#22c55e"
        font-family="monospace"
        font-size="14">
    ▲ ACTIVE
  </text>

  <circle cx="1042" cy="31" r="5" fill="#22c55e"/>

  <text x="1055" y="37"
        fill="#22c55e"
        font-family="monospace"
        font-size="14">
    LIVE
  </text>

  <text x="1110" y="37"
        fill="#f59e0b"
        font-family="monospace"
        font-size="14">
    BUILD
  </text>


  <!-- ================= MAIN DIVIDER ================= -->

  <line x1="790" y1="60"
        x2="790" y2="500"
        stroke="#30363d"/>


  <!-- ================= LEFT / CHART ================= -->

  <text x="35" y="102"
        fill="#8b949e"
        font-family="monospace"
        font-size="13"
        letter-spacing="2">
    CONTRIBUTION INDEX
  </text>

  <text x="35" y="153"
        fill="#f0f6fc"
        font-family="monospace"
        font-size="38"
        font-weight="bold">
    1,219
  </text>

  <text x="170" y="153"
        fill="#8b949e"
        font-family="monospace"
        font-size="15">
    TOTAL CONTRIBUTIONS
  </text>

  <text x="35" y="180"
        fill="#22c55e"
        font-family="monospace"
        font-size="12">
    ▲ DEVELOPMENT ACTIVITY
  </text>


  <!-- Chart Grid -->

  <g stroke="#21262d" stroke-width="1">
    <line x1="35" y1="220" x2="755" y2="220"/>
    <line x1="35" y1="260" x2="755" y2="260"/>
    <line x1="35" y1="300" x2="755" y2="300"/>
    <line x1="35" y1="340" x2="755" y2="340"/>

    <line x1="140" y1="205" x2="140" y2="340"/>
    <line x1="260" y1="205" x2="260" y2="340"/>
    <line x1="380" y1="205" x2="380" y2="340"/>
    <line x1="500" y1="205" x2="500" y2="340"/>
    <line x1="620" y1="205" x2="620" y2="340"/>
  </g>


  <!-- Candlesticks -->

  <!-- 1 green -->
  <line x1="75" y1="290" x2="75" y2="340"
        stroke="#22c55e" stroke-width="2"/>
  <rect x="68" y="302"
        width="14" height="25"
        fill="#22c55e"/>

  <!-- 2 green -->
  <line x1="110" y1="270" x2="110" y2="325"
        stroke="#22c55e" stroke-width="2"/>
  <rect x="103" y="283"
        width="14" height="26"
        fill="#22c55e"/>

  <!-- 3 red -->
  <line x1="145" y1="278" x2="145" y2="336"
        stroke="#ef4444" stroke-width="2"/>
  <rect x="138" y="295"
        width="14" height="25"
        fill="#ef4444"/>

  <!-- 4 green -->
  <line x1="180" y1="248" x2="180" y2="315"
        stroke="#22c55e" stroke-width="2"/>
  <rect x="173" y="261"
        width="14" height="35"
        fill="#22c55e"/>

  <!-- 5 green -->
  <line x1="215" y1="230" x2="215" y2="304"
        stroke="#22c55e" stroke-width="2"/>
  <rect x="208" y="245"
        width="14" height="33"
        fill="#22c55e"/>

  <!-- 6 red -->
  <line x1="250" y1="241" x2="250" y2="320"
        stroke="#ef4444" stroke-width="2"/>
  <rect x="243" y="258"
        width="14" height="35"
        fill="#ef4444"/>

  <!-- 7 red -->
  <line x1="285" y1="265" x2="285" y2="333"
        stroke="#ef4444" stroke-width="2"/>
  <rect x="278" y="280"
        width="14" height="34"
        fill="#ef4444"/>

  <!-- 8 green -->
  <line x1="320" y1="253" x2="320" y2="321"
        stroke="#22c55e" stroke-width="2"/>
  <rect x="313" y="269"
        width="14" height="30"
        fill="#22c55e"/>

  <!-- 9 green -->
  <line x1="355" y1="235" x2="355" y2="307"
        stroke="#22c55e" stroke-width="2"/>
  <rect x="348" y="250"
        width="14" height="34"
        fill="#22c55e"/>

  <!-- 10 green -->
  <line x1="390" y1="220" x2="390" y2="291"
        stroke="#22c55e" stroke-width="2"/>
  <rect x="383" y="235"
        width="14" height="34"
        fill="#22c55e"/>

  <!-- 11 red -->
  <line x1="425" y1="236" x2="425" y2="311"
        stroke="#ef4444" stroke-width="2"/>
  <rect x="418" y="253"
        width="14" height="35"
        fill="#ef4444"/>

  <!-- 12 green -->
  <line x1="460" y1="224" x2="460" y2="295"
        stroke="#22c55e" stroke-width="2"/>
  <rect x="453" y="240"
        width="14" height="32"
        fill="#22c55e"/>

  <!-- 13 green -->
  <line x1="495" y1="202" x2="495" y2="282"
        stroke="#22c55e" stroke-width="2"/>
  <rect x="488" y="217"
        width="14" height="38"
        fill="#22c55e"/>

  <!-- 14 red -->
  <line x1="530" y1="216" x2="530" y2="299"
        stroke="#ef4444" stroke-width="2"/>
  <rect x="523" y="234"
        width="14" height="36"
        fill="#ef4444"/>

  <!-- 15 green -->
  <line x1="565" y1="192" x2="565" y2="278"
        stroke="#22c55e" stroke-width="2"/>
  <rect x="558" y="207"
        width="14" height="43"
        fill="#22c55e"/>

  <!-- 16 green -->
  <line x1="600" y1="175" x2="600" y2="263"
        stroke="#22c55e" stroke-width="2"/>
  <rect x="593" y="192"
        width="14" height="44"
        fill="#22c55e"/>

  <!-- 17 red -->
  <line x1="635" y1="187" x2="635" y2="272"
        stroke="#ef4444" stroke-width="2"/>
  <rect x="628" y="204"
        width="14" height="40"
        fill="#ef4444"/>

  <!-- 18 green -->
  <line x1="670" y1="158" x2="670" y2="251"
        stroke="#22c55e" stroke-width="2"/>
  <rect x="663" y="177"
        width="14" height="47"
        fill="#22c55e"/>

  <!-- 19 green -->
  <line x1="705" y1="142" x2="705" y2="235"
        stroke="#22c55e" stroke-width="2"/>
  <rect x="698" y="160"
        width="14" height="48"
        fill="#22c55e"/>


  <!-- Chart labels -->

  <text x="35" y="367"
        fill="#6e7681"
        font-family="monospace"
        font-size="10">
    SEP 2023
  </text>

  <text x="365" y="367"
        fill="#6e7681"
        font-family="monospace"
        font-size="10">
    2025
  </text>

  <text x="690" y="367"
        fill="#6e7681"
        font-family="monospace"
        font-size="10">
    SEP 2026
  </text>


  <!-- ================= METRICS ================= -->

  <line x1="35" y1="396"
        x2="755" y2="396"
        stroke="#30363d"/>

  <!-- Current -->

  <text x="35" y="425"
        fill="#8b949e"
        font-family="monospace"
        font-size="12"
        letter-spacing="1">
    CURRENT STREAK
  </text>

  <text x="35" y="466"
        fill="#22c55e"
        font-family="monospace"
        font-size="29"
        font-weight="bold">
    44D
  </text>


  <!-- Longest -->

  <text x="215" y="425"
        fill="#8b949e"
        font-family="monospace"
        font-size="12"
        letter-spacing="1">
    LONGEST STREAK
  </text>

  <text x="215" y="466"
        fill="#f0f6fc"
        font-family="monospace"
        font-size="29"
        font-weight="bold">
    44D
  </text>


  <!-- Mode -->

  <text x="405" y="425"
        fill="#8b949e"
        font-family="monospace"
        font-size="12"
        letter-spacing="1">
    MODE
  </text>

  <text x="405" y="466"
        fill="#f59e0b"
        font-family="monospace"
        font-size="24"
        font-weight="bold">
    BUILD
  </text>


  <!-- Signal -->

  <text x="555" y="425"
        fill="#8b949e"
        font-family="monospace"
        font-size="12"
        letter-spacing="1">
    DEV TREND
  </text>

  <text x="555" y="466"
        fill="#22c55e"
        font-family="monospace"
        font-size="23"
        font-weight="bold">
    ▲ BULLISH
  </text>


  <!-- ================= RIGHT ================= -->

  <text x="825" y="102"
        fill="#8b949e"
        font-family="monospace"
        font-size="13"
        letter-spacing="2">
    LANGUAGE ALLOCATION
  </text>


  <!-- Python -->

  <text x="825" y="148"
        fill="#f0f6fc"
        font-family="monospace"
        font-size="14">
    PYTHON
  </text>

  <text x="918" y="148"
        fill="#22c55e"
        font-family="monospace"
        font-size="12">
    ▲
  </text>

  <rect x="965" y="139"
        width="180" height="7"
        rx="3"
        fill="#21262d"/>

  <rect x="965" y="139"
        width="158" height="7"
        rx="3"
        fill="#22c55e"/>


  <!-- Jupyter -->

  <text x="825" y="195"
        fill="#f0f6fc"
        font-family="monospace"
        font-size="14">
    JUPYTER
  </text>

  <text x="918" y="195"
        fill="#22c55e"
        font-family="monospace"
        font-size="12">
    ▲
  </text>

  <rect x="965" y="186"
        width="180" height="7"
        rx="3"
        fill="#21262d"/>

  <rect x="965" y="186"
        width="126" height="7"
        rx="3"
        fill="#22c55e"/>


  <!-- TypeScript -->

  <text x="825" y="242"
        fill="#f0f6fc"
        font-family="monospace"
        font-size="14">
    TYPESCRIPT
  </text>

  <text x="918" y="242"
        fill="#ef4444"
        font-family="monospace"
        font-size="12">
    ▼
  </text>

  <rect x="965" y="233"
        width="180" height="7"
        rx="3"
        fill="#21262d"/>

  <rect x="965" y="233"
        width="108" height="7"
        rx="3"
        fill="#ef4444"/>


  <!-- HTML -->

  <text x="825" y="289"
        fill="#f0f6fc"
        font-family="monospace"
        font-size="14">
    HTML
  </text>

  <text x="918" y="289"
        fill="#ef4444"
        font-family="monospace"
        font-size="12">
    ▼
  </text>

  <rect x="965" y="280"
        width="180" height="7"
        rx="3"
        fill="#21262d"/>

  <rect x="965" y="280"
        width="74" height="7"
        rx="3"
        fill="#ef4444"/>


  <!-- Java -->

  <text x="825" y="336"
        fill="#f0f6fc"
        font-family="monospace"
        font-size="14">
    JAVA
  </text>

  <text x="918" y="336"
        fill="#22c55e"
        font-family="monospace"
        font-size="12">
    ▲
  </text>

  <rect x="965" y="327"
        width="180" height="7"
        rx="3"
        fill="#21262d"/>

  <rect x="965" y="327"
        width="52" height="7"
        rx="3"
        fill="#22c55e"/>


  <!-- Developer signal -->

  <line x1="825" y1="376"
        x2="1145" y2="376"
        stroke="#30363d"/>

  <text x="825" y="410"
        fill="#8b949e"
        font-family="monospace"
        font-size="13"
        letter-spacing="2">
    DEVELOPER SIGNAL
  </text>


  <circle cx="831" cy="447"
          r="5"
          fill="#22c55e"/>

  <text x="848" y="452"
        fill="#f0f6fc"
        font-family="monospace"
        font-size="14">
    LEARNING
  </text>


  <circle cx="831" cy="478"
          r="5"
          fill="#22c55e"/>

  <text x="848" y="483"
        fill="#f0f6fc"
        font-family="monospace"
        font-size="14">
    BUILDING
  </text>


  <circle cx="995" cy="447"
          r="5"
          fill="#ef4444"/>

  <text x="1012" y="452"
        fill="#f0f6fc"
        font-family="monospace"
        font-size="14">
    DEBUG
  </text>


  <circle cx="995" cy="478"
          r="5"
          fill="#f59e0b"/>

  <text x="1012" y="483"
        fill="#f0f6fc"
        font-family="monospace"
        font-size="14">
    SHIP
  </text>


  <!-- ================= FOOTER ================= -->

  <rect x="1" y="500"
        width="1198" height="59"
        rx="15"
        fill="#11161d"/>

  <line x1="1" y1="500"
        x2="1199" y2="500"
        stroke="#30363d"/>

  <text x="28" y="536"
        fill="#8b949e"
        font-family="monospace"
        font-size="13">
    MAULIDACY / DEV TERMINAL
  </text>

  <circle cx="814"
          cy="531"
          r="4"
          fill="#22c55e"/>

  <text x="828" y="536"
        fill="#22c55e"
        font-family="monospace"
        font-size="12">
    MARKET OPEN
  </text>

  <text x="955" y="536"
        fill="#8b949e"
        font-family="monospace"
        font-size="12">
    KEEP LEARNING · KEEP BUILDING
  </text>

</svg>
